<svg width="503" height="739" viewBox="0 0 503 739" fill="none" xmlns="http://www.w3.org/2000/svg">
<path d="M272.5 4.5C269.833 6.33333 261.8 12.8 261 22C260.2 31.2 256 63.1667 254 78C252.833 82.6667 248.7 92.9 241.5 96.5C232.5 101 232.5 116 241.5 119.5C241.851 119.637 242.184 119.777 242.5 119.922C239.5 147 229.826 144.548 221 147C212.422 149.383 190.036 174.938 221 193C233 200 212.5 186.5 208.5 215C202.5 215.8 192.5 216 191 218.5V220L206.5 232V243V359.5"  stroke="#B0BED2" stroke-width="10"/>
<path d="M209.5 354.5L196.5 361.5C195.333 362.167 193.5 363.7 195.5 364.5C197.5 365.3 204 368.5 207 370V470V494.5L176 496.5L172.5 487H160.5L158 496.5L130 499L5 577.5V656.5V715.5L207 734H274L497.5 729V567.5L452.5 504L333.923 494.5V370L347 364.5C347.333 362.667 338 358.5 338 358.5C338 358.5 333.526 355.5 329.5 354.5"  stroke="#B0BED2" stroke-width="10"/>
<path d="M267 4.5C269.667 6.33333 278.2 12.8 279 22C279.8 31.2 284 63.1667 286 78C287.167 82.6667 291.3 92.9 298.5 96.5C307.5 101 307.5 116 298.5 119.5C298.149 119.637 297.816 119.777 297.5 119.922C300.5 147 310.174 144.548 319 147C327.578 149.383 349.964 174.938 319 193C307 200 327.5 186.5 331.5 215C337.5 215.8 347.5 216 349 218.5V220L333.5 232V243V359.5"  stroke="#B0BED2" stroke-width="10"/>
<path d="M494 571L274.5 563H210L7 577.5M206 494.5L274.5 490.5L333 494.5"  stroke="#B0BED2" stroke-width="10"/>
<path d="M212 563L270 490"  stroke="#B0BED2" stroke-width="10"/>
<path d="M224 195L268 188.5L315.5 195" stroke="#B0BED2" stroke-width="10"/>
<path d="M268 492V185.5" stroke="#B0BED2" stroke-width="10"/>
<path d="M315.5 309L288 305V267.376C288 235.376 315.5 234.376 315.5 267.376V309Z" stroke="#B0BED2" stroke-width="10"/>
<path d="M250.5 303.5L223 307.376V267.376C223 235.376 250.5 234.376 250.5 267.376V303.5Z" stroke="#B0BED2" stroke-width="10"/>
<path d="M212 733V563" stroke="#B0BED2" stroke-width="10"/>
</svg>
